<svg height="512" viewBox="0 0 59 59" width="512" xmlns="http://www.w3.org/2000/svg"><g id="Page-1" fill="none" fill-rule="evenodd"><g id="001---Day-and-Night" fill-rule="nonzero"><path id="Shape" d="m58.953 31.672c-.7392493 12.8387091-9.8454326 23.6571725-22.3697689 26.5760659-12.5243364 2.9188934-25.4751282-2.7590215-31.8142311-13.9480659-.19480335-.3580266-.15281821-.798456.10612155-1.1132282.25893975-.3147723.68300981-.4408888 1.07187845-.3187718 10.4737934 3.0214412 21.7573352-.0830397 29.2114162-8.0370407 7.4540809-7.9540009 9.8206066-19.4150512 6.1265838-29.6709593-.1428054-.37971191-.0420582-.80807465.2550246-1.08432874.2970827-.2762541.7316267-.34565281 1.0999754-.17567126 10.553474 5.10668573 16.9917997 16.067587 16.313 27.772z" fill="#3b97d3"/><path id="Shape" d="m53.007 41c-.3328568-.000071-.64386-.1657558-.8296053-.4419666-.1857452-.2762108-.2218817-.626737-.0963947-.9350334 1.8931819-4.5603075 2.3905081-9.5798559 1.429-14.423-.0714531-.3501203.0493084-.7117646.3167949-.9487049.2674865-.2369404.6410604-.31318.98-.2.3389396.1131799.591752.3985846.6632051.7487049 1.041245 5.2308955.5066769 10.6531419-1.536 15.58-.1543753.3757788-.5207479.6208177-.927.62z" fill="#9fc9d3"/><path id="Shape" d="m52.92 21c-.3970721-.0006018-.7561714-.2360768-.915-.6-.4583797-1.0480139-.9910699-2.0619298-1.594-3.034-.1889935-.3036758-.2016216-.6851105-.0331274-1.0006216.1684941-.315511.4925123-.5171647.85-.529.3574876-.0118353.6941339.1679458.8831274.4716216.6525728 1.0547389 1.2287153 2.1548903 1.724 3.292.1348201.3089106.104956.6649539-.0794397.9470894s-.4985114.4524001-.8355603.4529106z" fill="#9fc9d3"/><circle id="Oval" cx="19" cy="19" fill="#f3d55b" r="10"/><path id="Shape" d="m13 20c-.5522847 0-1-.4477153-1-1 .0044086-3.8641657 3.1358343-6.9955914 7-7 .5522847 0 1 .4477153 1 1s-.4477153 1-1 1c-2.7600532.0033061-4.9966939 2.2399468-5 5 0 .5522847-.4477153 1-1 1z" fill="#f5efca"/><g fill="#f0c419"><path id="Shape" d="m19 6c-.5522847 0-1-.44771525-1-1v-4c0-.55228475.4477153-1 1-1s1 .44771525 1 1v4c0 .55228475-.4477153 1-1 1z"/><path id="Shape" d="m19 38c-.5522847 0-1-.4477153-1-1v-4c0-.5522847.4477153-1 1-1s1 .4477153 1 1v4c0 .5522847-.4477153 1-1 1z"/><path id="Shape" d="m37 20h-4c-.5522847 0-1-.4477153-1-1s.4477153-1 1-1h4c.5522847 0 1 .4477153 1 1s-.4477153 1-1 1z"/><path id="Shape" d="m5 20h-4c-.55228475 0-1-.4477153-1-1s.44771525-1 1-1h4c.55228475 0 1 .4477153 1 1s-.44771525 1-1 1z"/><path id="Shape" d="m9.1 10.1c-.26519481-.0000566-.51950727-.10545063-.707-.293l-2.828-2.828c-.37897221-.39237889-.37355237-1.01608478.01218142-1.40181858.3857338-.38573379 1.00943969-.39115363 1.40181858-.01218142l2.829 2.829c.2853222.28621606.3703185.71603682.2154088 1.08930798-.15490974.37327117-.51926974.61660642-.9234088.61669202z"/><path id="Shape" d="m31.728 32.728c-.2651948-.0000566-.5195073-.1054506-.707-.293l-2.829-2.829c-.3789722-.3923789-.3735524-1.0160848.0121814-1.4018186s1.0094397-.3911536 1.4018186-.0121814l2.829 2.829c.2859079.2859943.3714219.7160366.216678 1.0896546-.1547439.3736179-.5192821.6172591-.923678.6173454z"/><path id="Shape" d="m28.9 10.1c-.4043959-.0000863-.7689341-.2437275-.923678-.61734544s-.0692299-.80366031.216678-1.08965456l2.829-2.829c.2510745-.25995658.6228779-.3642126.9725073-.27269716.3496295.09151544.6226744.3645604.7141899.71418984.0915154.34962943-.0127406.72143285-.2726972.97250732l-2.83 2.83c-.1874111.18693791-.4412951.2919438-.706.292z"/><path id="Shape" d="m6.272 32.728c-.4043959-.0000863-.76893405-.2437275-.92367798-.6173454-.15474393-.373618-.06922994-.8036603.21667798-1.0896546l2.829-2.829c.39237889-.3789722 1.01608478-.3735524 1.40181858.0121814.38573382.3857338.39115362 1.0094397.01218142 1.4018186l-2.829 2.829c-.18749273.1875494-.44180519.2929434-.707.293z"/></g></g></g></svg>